<?xml version="1.0" encoding="UTF-8"?>
<svg width="54px" height="50px" viewBox="0 0 54 50" version="1.1" xmlns="http://www.w3.org/2000/svg" xmlns:xlink="http://www.w3.org/1999/xlink">
    <!-- Generator: Sketch 51.2 (57519) - http://www.bohemiancoding.com/sketch -->
    <title>Water can</title>
    <desc>Created with Sketch.</desc>
    <defs></defs>
    <g id="Plantly" stroke="none" stroke-width="1" fill="none" fill-rule="evenodd" opacity="0.8">
        <g id="Plant-detail" transform="translate(-65.000000, -274.000000)" fill="#FFFFFF">
            <g id="plant-detail" transform="translate(-66.000000, -81.000000)">
                <g id="content" transform="translate(66.000000, 335.000000)">
                    <g id="Water-icon" transform="translate(46.000000, 0.000000)">
                        <g id="Water-can" transform="translate(16.000000, 14.000000)">
                            <g transform="translate(0.000000, -0.551724)">
                                <g id="Water-Can" transform="translate(31.959660, 32.281522) rotate(-45.000000) translate(-31.959660, -32.281522) translate(8.235522, 11.040143)" fill-rule="nonzero">
                                    <g id="Layer_1" transform="translate(0.000000, -0.000000)">
                                        <path d="M32.8459204,0.132823732 C25.6321134,0.132823732 19.906093,5.85884417 19.3188088,13.3956574 C19.3188088,13.4054455 19.3090207,13.4152335 19.3090207,13.4348097 C19.2992327,13.5522665 19.2992327,13.6795114 19.2894446,13.7969682 C18.4085184,13.9633654 17.5961087,14.3646762 16.9500961,14.9519604 C16.0398057,15.7937343 15.5406141,16.9487265 15.5308261,18.2113874 L15.5308261,19.6110813 L4.99886369,12.2406652 L5.11632052,12.06448 C5.25000441,11.8415424 5.28901675,11.5744134 5.22467344,11.3225553 C5.16033014,11.0706973 4.99797145,10.8550134 4.7737381,10.7235145 C4.55199107,10.5889957 4.28574758,10.5484817 4.03402475,10.6109531 C3.78230192,10.6734244 3.56589449,10.8337204 3.43277263,11.0563089 L0.192921744,16.459323 C0.0122221099,16.7616574 0.00827290587,17.1378583 0.182585853,17.4439194 C0.3568988,17.7499805 0.682478416,17.9385027 1.03469569,17.9373215 C1.34278231,17.9373215 1.63288924,17.792268 1.81774122,17.5457987 L9.76565335,25.1511284 C13.4263912,28.2539463 15.5308261,32.7858223 15.5308261,37.5917643 C15.5362105,40.2005327 17.649695,42.3140172 20.2584635,42.3194017 L34.9797194,42.3194017 C37.5884879,42.3140172 39.7019723,40.2005327 39.7073568,37.5917643 L39.7073568,26.8346763 C41.9786097,25.6224298 43.8615861,23.7937373 45.1397352,21.5589071 C46.3632438,19.4348961 47.0386206,16.9487265 47.0386206,14.325524 C47.0386206,6.50485673 40.6763757,0.132823732 32.8459204,0.132823732 Z M39.9422705,24.387659 C39.8541778,24.4463874 39.7856614,24.5149039 39.7073568,24.5638443 L39.7073568,18.436513 C39.7073568,15.881827 37.4561009,13.7186637 34.7937461,13.7186637 L21.2568465,13.7186637 C21.2568465,13.620783 21.2666346,13.5326904 21.2764226,13.4348097 C21.5700647,10.1753827 22.9306063,7.35641875 24.9861008,5.33028844 C27.0415954,3.30415813 29.7920428,2.09043756 32.8459204,2.09043756 C39.5899,2.09043756 45.0810068,7.58154434 45.0810068,14.325524 C45.0810068,18.4658772 43.1429691,22.1559793 39.9422705,24.387659 Z" id="Shape"></path>
                                    </g>
                                </g>
                                <g id="Drops-4" transform="translate(10.300634, 44.154473) rotate(-300.000000) translate(-10.300634, -44.154473) translate(6.162703, 41.395853)" fill-rule="nonzero">
                                    <g id="svg2" transform="translate(0.000000, 0.000000)">
                                        <g id="g10" transform="translate(4.137931, 3.011307) scale(-1, 1) rotate(-180.000000) translate(-4.137931, -3.011307) translate(0.000000, 0.528549)">
                                            <g id="g12" transform="translate(0.000000, -0.000000)">
                                                <g id="g14-Clipped" transform="translate(0.000000, -0.000000)">
                                                    <g id="g14" transform="translate(0.184295, 0.347680)">
                                                        <g id="g36" transform="translate(0.003300, 1.537999)">
                                                            <path d="M1.08216835,1.19341011 L0.568099504,2.32073885 L0.091832663,1.20087075 C-0.0192706813,0.963673787 -0.0288650979,0.654957563 0.0876111197,0.399752151 C0.253402639,0.0364960613 0.610314937,-0.0800443132 0.88490714,0.138886942 C1.15949934,0.358075461 1.24776798,0.829896757 1.08216835,1.19341011" id="path38"></path>
                                                        </g>
                                                        <g id="g40" transform="translate(1.538407, 0.766208)">
                                                            <path d="M1.08216835,1.19341011 L0.568099504,2.32073885 L0.091832663,1.20087075 C-0.0192706813,0.963673787 -0.0288650979,0.654957563 0.0876111197,0.399752151 C0.253402639,0.0364960613 0.610314937,-0.0800443132 0.88490714,0.138886942 C1.15949934,0.358075461 1.24776798,0.829896757 1.08216835,1.19341011" id="path42"></path>
                                                        </g>
                                                        <g id="g44" transform="translate(3.748039, 0.418886)">
                                                            <path d="M1.07786734,1.16498277 L0.563798494,2.29231151 L0.0875316539,1.17244341 C-0.0235716905,0.935246443 -0.0331661071,0.62653022 0.0833101106,0.371324808 C0.24910163,0.00806871775 0.606013928,-0.108471657 0.880606131,0.110459599 C1.15500645,0.329648118 1.24346697,0.801469413 1.07786734,1.16498277" id="path46"></path>
                                                        </g>
                                                        <g id="g48" transform="translate(5.749838, 0.017545)">
                                                            <path d="M1.08216835,1.19341011 L0.568099504,2.32073885 L0.091832663,1.20087075 C-0.0192706813,0.963673787 -0.0288650979,0.654957563 0.0876111197,0.399752151 C0.253402639,0.0364960613 0.610314937,-0.0800443132 0.88490714,0.138886942 C1.15930746,0.358075461 1.24776798,0.829896757 1.08216835,1.19341011" id="path50"></path>
                                                        </g>
                                                    </g>
                                                </g>
                                            </g>
                                        </g>
                                    </g>
                                </g>
                                <g id="Drops-3" transform="translate(8.192158, 46.219770) rotate(-323.000000) translate(-8.192158, -46.219770) translate(4.330089, 42.909425)" fill-rule="nonzero">
                                    <g id="svg2" transform="translate(-0.000000, 0.000000)">
                                        <g id="g10" transform="translate(3.862069, 3.152692) scale(-1, 1) rotate(-180.000000) translate(-3.862069, -3.152692) translate(0.000000, 0.118209)">
                                            <g id="g12" transform="translate(0.000000, 0.000000)">
                                                <g id="g14-Clipped" transform="translate(0.000000, 0.000000)">
                                                    <g id="g14" transform="translate(0.169019, 0.409374)">
                                                        <g id="g36" transform="translate(0.003027, 2.997295)">
                                                            <path d="M0.988868409,1.09328625 L0.517409428,2.12717357 L0.0806191363,1.1001285 C-0.0212751339,0.882592185 -0.0300742937,0.599464665 0.076747506,0.365412582 C0.228796987,0.0322658666 0.556125731,-0.0746147721 0.807957684,0.126169827 C1.05978964,0.327190367 1.14074191,0.759903593 0.988868409,1.09328625" id="path38"></path>
                                                        </g>
                                                        <g id="g40" transform="translate(1.410892, 1.760550)">
                                                            <path d="M1.30718379,1.19979309 L0.835724812,2.23368041 L0.39893452,1.20663533 C0.29704025,0.989099023 0.28824109,0.705971503 0.39506289,0.471919419 C0.547112371,0.138772704 0.874441115,0.0318920655 1.12627307,0.232676665 C1.37810502,0.433697204 1.45905729,0.866410431 1.30718379,1.19979309" id="path42"></path>
                                                        </g>
                                                        <g id="g44" transform="translate(3.437374, 0.384165)">
                                                            <path d="M1.19913589,1.49083909 L0.727676904,2.52472641 L0.290886613,1.49768133 C0.188992343,1.28014502 0.180193183,0.997017503 0.287014983,0.76296542 C0.439064464,0.429818704 0.766393207,0.322938066 1.01822516,0.523722665 C1.26988113,0.724743204 1.35100938,1.15745643 1.19913589,1.49083909" id="path46"></path>
                                                        </g>
                                                        <g id="g48" transform="translate(5.802174, 0.016091)">
                                                            <path d="M0.992470159,1.09449138 L0.521011178,2.1283787 L0.0842208868,1.10133362 C-0.0176733835,0.883797314 -0.0264725433,0.600669794 0.0803492565,0.366617711 C0.232398737,0.0334709955 0.559727481,-0.0734096433 0.811559434,0.127374956 C1.0632154,0.328395495 1.14434366,0.761108722 0.992470159,1.09449138" id="path50"></path>
                                                        </g>
                                                    </g>
                                                </g>
                                            </g>
                                        </g>
                                    </g>
                                </g>
                                <g id="Drops-2" transform="translate(7.516897, 48.578172) rotate(-331.000000) translate(-7.516897, -48.578172) translate(3.378966, 44.716103)" fill-rule="nonzero">
                                    <g id="svg2" transform="translate(0.000000, -0.000000)">
                                        <g id="g10" transform="translate(4.137931, 3.875682) scale(-1, 1) rotate(-180.000000) translate(-4.137931, -3.875682) translate(0.000000, 0.289475)">
                                            <g id="g12" transform="translate(0.000000, 0.000000)">
                                                <g id="g14-Clipped" transform="translate(-0.000000, -0.000000)">
                                                    <g id="g14" transform="translate(0.171749, 0.276405)">
                                                        <g id="g36" transform="translate(0.003076, 3.549003)">
                                                            <path d="M1.23075058,1.16964765 L0.751676431,2.22023468 L0.307830955,1.17660042 C0.204290854,0.955550389 0.195349567,0.667849697 0.303896789,0.430017126 C0.458402225,0.0914893119 0.791018093,-0.0171176992 1.04691772,0.186910041 C1.30281735,0.391177532 1.38507719,0.830880089 1.23075058,1.16964765" id="path38"></path>
                                                        </g>
                                                        <g id="g40" transform="translate(1.962607, 1.771900)">
                                                            <path d="M1.21468142,1.30228135 L0.735607269,2.35286838 L0.291761793,1.30923412 C0.188221692,1.08818409 0.179280405,0.800483396 0.287827627,0.562650824 C0.442333062,0.22412301 0.774948931,0.115515999 1.03084856,0.31954374 C1.28674819,0.523811231 1.36900803,0.963513788 1.21468142,1.30228135" id="path42"></path>
                                                        </g>
                                                        <g id="g44" transform="translate(4.021821, 0.919296)">
                                                            <path d="M1.00449265,1.08567779 L0.525418505,2.13626482 L0.0815730286,1.09263056 C-0.0219670724,0.871580525 -0.0309083592,0.583879834 0.0776388624,0.346047262 C0.232144298,0.00751944827 0.564760167,-0.101087563 0.820659795,0.102940178 C1.0763806,0.307207669 1.15881926,0.746910226 1.00449265,1.08567779" id="path46"></path>
                                                        </g>
                                                        <g id="g48" transform="translate(5.887349, 0.016351)">
                                                            <path d="M1.2649291,1.17848682 L0.785854956,2.22907385 L0.34200948,1.18543959 C0.238469379,0.964389557 0.229528092,0.676688865 0.338075314,0.438856293 C0.49258075,0.100328479 0.825196618,-0.00827853163 1.08109625,0.195749209 C1.33681705,0.4000167 1.41925571,0.839719257 1.2649291,1.17848682" id="path50"></path>
                                                        </g>
                                                    </g>
                                                </g>
                                            </g>
                                        </g>
                                    </g>
                                </g>
                                <g id="Drops-1" transform="translate(6.757227, 52.359596) rotate(-335.000000) translate(-6.757227, -52.359596) translate(2.343434, 48.221665)" fill-rule="nonzero">
                                    <g id="svg2" transform="translate(0.000000, 0.000000)">
                                        <g id="g10" transform="translate(4.413793, 4.012693) scale(-1, 1) rotate(-180.000000) translate(-4.413793, -4.012693) translate(0.000000, 0.150624)">
                                            <g id="g12" transform="translate(-0.000000, 0.000000)">
                                                <g id="g14-Clipped" transform="translate(0.000000, -0.000000)">
                                                    <g id="g14" transform="translate(0.189291, 0.304636)">
                                                        <g id="g36" transform="translate(0.003390, 3.695397)">
                                                            <path d="M1.31778617,1.62327524 L0.789780603,2.78116656 L0.300601874,1.63093814 C0.186486449,1.38731062 0.176631922,1.07022491 0.296265882,0.80810072 C0.466552111,0.434996532 0.833140523,0.315296676 1.11517709,0.540163294 C1.39721366,0.765294149 1.48787531,1.24990681 1.31778617,1.62327524" id="path38"></path>
                                                        </g>
                                                        <g id="g40" transform="translate(2.109040, 1.844832)">
                                                            <path d="M1.2359278,1.72238766 L0.707922235,2.88027899 L0.218743506,1.73005057 C0.104628081,1.48642304 0.0947735538,1.16933733 0.214407514,0.907213144 C0.384693744,0.534108956 0.751282155,0.4144091 1.03331872,0.639275717 C1.31535529,0.864406573 1.40601694,1.34901924 1.2359278,1.72238766" id="path42"></path>
                                                        </g>
                                                        <g id="g44" transform="translate(3.849651, 1.488093)">
                                                            <path d="M1.2810664,1.46965601 L0.753060835,2.62754733 L0.263882105,1.47731891 C0.149766681,1.23369139 0.139912153,0.91660568 0.259546114,0.654481491 C0.429832343,0.281377304 0.796420755,0.161677447 1.07845732,0.386544065 C1.3602968,0.61167492 1.45115554,1.09628758 1.2810664,1.46965601" id="path46"></path>
                                                        </g>
                                                        <g id="g48" transform="translate(6.434645, 0.018021)">
                                                            <path d="M1.20362565,1.59796646 L0.675620079,2.75585778 L0.18644135,1.60562936 C0.0723259251,1.36200184 0.0624713979,1.04491613 0.182105358,0.782791941 C0.352391588,0.409687754 0.718979999,0.289987897 1.00101657,0.514854515 C1.28285604,0.73998537 1.37371479,1.22459803 1.20362565,1.59796646" id="path50"></path>
                                                        </g>
                                                    </g>
                                                </g>
                                            </g>
                                        </g>
                                    </g>
                                </g>
                            </g>
                        </g>
                    </g>
                </g>
            </g>
        </g>
    </g>
</svg>